# Blender v2.80 (sub 75) OBJ File: ''
# www.blender.org
mtllib cylindricalpeg.mtl
o Peg_Test
v 4.480134 2.455595 -4.458902
v -7.047088 -32.271942 -4.424715
v 5.123948 -32.643318 -4.412462
v -17.550842 22.946165 -4.343737
v -22.288818 20.604864 -4.329172
v -19.885254 16.077963 -4.369715
v -15.231841 18.156263 -4.317743
v -17.001602 16.283033 0.541098
v -21.408844 17.279753 0.541098
v -21.590393 21.651480 0.541098
v -15.853362 22.048643 0.541098
v 18.536957 22.511442 -4.366945
v 14.355195 22.236700 -4.361002
v 13.917436 16.761160 -4.271860
v 19.982788 17.794935 -4.355677
v 19.406342 16.937368 0.541098
v 14.189637 16.947081 0.541098
v 13.746675 21.720991 0.541098
v 18.770477 22.380644 0.541098
v -22.459885 -16.695314 -4.303736
v -17.860931 -19.310577 -4.363703
v -15.131545 -16.129274 -4.368563
v -18.333710 -12.120890 -4.320322
v -18.466324 -19.790733 0.541098
v -22.016541 -13.862246 0.541098
v -15.559035 -13.766855 0.541098
v -21.796417 -26.123718 -4.437777
v -31.812332 -14.196825 -4.358072
v -35.984863 3.209684 -4.435137
v -27.025101 25.685072 -4.421717
v -9.752868 35.315327 -4.409128
v 6.848512 35.884892 -4.434084
v 23.417130 26.510435 -4.405130
v 31.069641 14.652281 -4.435122
v 33.778519 -0.570834 -4.415186
v 26.041321 -20.485970 -4.424486
v -13.726455 -30.877998 0.524969
v 4.862565 -32.346092 0.477133
v -34.930405 -6.142489 0.466772
v -28.016861 -19.907150 0.493185
v -25.402023 26.803114 0.452078
v -34.390106 11.713491 0.528738
v 29.944122 18.040480 0.512320
v 16.588242 31.788710 0.484686
v -4.994887 36.894901 0.541952
v 33.568481 -3.934901 0.467321
v 22.070435 -24.675369 0.503378
v 14.028108 -18.185623 0.444510
v 13.476991 -14.035440 0.428289
v 20.173843 -16.253458 0.440481
v 17.439087 -19.363640 0.423208
v 17.968552 -12.508081 0.446081
v 13.059342 -15.950991 -4.358728
v 15.693971 -12.384676 -4.348673
v 19.412872 -13.720194 -4.373598
v 16.115051 -19.487991 -4.361055
v 19.886597 -17.234308 -4.367792
v -7.075866 -9.871363 -4.470545
v -10.928649 -7.868906 -4.774790
v -10.881667 11.658751 -4.726183
v 8.817491 11.667776 -4.700876
v 8.255601 11.121374 -34.122963
v -2.784972 7.035993 -13.025079
v -0.376220 7.334463 -11.626473
v 0.589875 9.829283 -12.363496
v 0.666368 7.050107 -14.040200
v -1.079436 9.814360 -15.508294
v -1.633193 7.345205 -15.279000
v -2.597014 9.821257 -12.216500
v -1.821532 9.846746 -16.094368
v 1.962556 9.876860 -15.190949
v -2.480971 7.164686 -27.014854
v -1.230453 7.380064 -23.543549
v 0.471787 9.814360 -24.081955
v 0.796830 7.011915 -25.736229
v -0.704726 9.827726 -27.431023
v -2.892516 9.831625 -24.796516
v -1.021026 11.814360 -17.046738
v -10.333663 11.117575 -34.123802
v -10.294890 -7.501505 -34.140465
v -6.577483 2.370496 -4.674234
v 8.222230 -7.500071 -34.140503
v 8.792100 -8.018824 -4.756548
v 4.976274 -8.567461 -4.567987
v -5.941176 4.372114 -4.458902
v -4.254745 6.371099 -4.458902
v 3.612168 4.955503 -4.458902
v -1.496947 7.347944 -4.458902
v 1.085237 6.943182 -4.458902
v -6.713088 2.521574 -34.458900
v 4.647202 2.953001 -34.458900
v -5.631209 5.440206 -34.458900
v 2.223390 6.698583 -34.458900
v -2.019744 7.534696 -34.458900
v 0.396287 -6.414637 -26.285057
v 0.564027 -3.464121 -25.950188
v -0.458877 -6.315104 -23.116730
v -0.096572 -3.659518 -23.341202
v -2.820998 -3.397349 -24.357674
v -2.847808 -6.338137 -25.854301
v -1.604980 -3.689082 -26.748024
v -4.878188 -8.150736 -25.004021
v 0.790284 -8.098879 -21.415148
v 0.551270 -8.083841 -28.654488
v -7.037444 -8.179026 -34.004936
v 4.962541 -8.178049 -34.004951
v 4.962541 -8.185648 -6.015176
v 4.962541 0.614358 -6.015176
v 4.595582 0.812975 -34.015182
v -6.689132 0.785883 -34.015182
v -5.675567 -1.595202 -34.015182
v 3.726594 -1.468684 -34.015182
v -2.838653 -3.736826 -34.015182
v 1.033357 -3.588068 -34.015182
v -7.037444 -8.185648 -6.015176
v -7.037444 0.614358 -6.015176
v -3.035171 -7.396784 -11.875398
v 2.299470 -8.153460 -14.954736
v 0.320069 -8.154558 -9.463288
v -3.126006 -8.173517 -16.121315
v -0.030486 -6.413210 -11.396935
v 0.495378 -6.426508 -14.073693
v -2.203765 -6.415530 -14.529168
v -1.223815 -3.707446 -14.833596
v 0.829865 -3.372584 -13.164002
v -0.829726 -3.712245 -11.227509
v -2.889968 -3.372340 -12.643121
v 4.352754 10.553244 -34.458900
v 1.854234 5.982763 -34.458900
v 9.651216 1.456644 -34.458900
v 4.002046 1.106081 -34.458900
v 3.555970 3.907667 -34.458900
v 3.229127 -7.620378 -34.458900
v 0.875947 -2.862681 -34.458900
v 2.826890 -1.428164 -34.458900
v -5.054107 -1.267687 -34.458900
v -2.320678 -3.147639 -34.458900
v -5.798614 3.618207 -34.458900
v -10.999602 4.468160 -34.458900
v -5.995940 0.939935 -34.458900
v -8.120131 -6.285616 -34.458900
v -0.619872 6.839880 -34.458900
v -4.749938 11.570539 -34.458900
v -3.535079 6.274213 -34.458900
v -5.144835 -7.823092 -59.458900
v -4.772384 11.336592 -59.458900
v -11.853271 2.871694 -59.458900
v 5.453874 10.325171 -59.458900
v 4.282350 -6.981249 -59.458900
v 9.125260 0.007177 -59.458900
v -2.478530 -3.643832 -59.773529
v 4.004228 -0.320895 -59.811188
v 2.181108 6.229902 -59.824699
v -6.333083 0.239442 -59.963722
v -3.749450 6.413045 -59.830078
v 2.999665 4.747968 -109.452827
v -1.370833 6.656957 -109.413918
v -5.291152 4.349958 -109.432426
v -5.527770 0.027841 -109.409950
v -2.083755 -3.081751 -109.424049
v 3.143067 -0.911944 -109.432472
vn 0.0195 -0.0075 -0.9998
vn 0.0010 -0.0013 -1.0000
vn 0.2175 0.9615 -0.1678
vn 0.9878 0.0410 -0.1505
vn 0.8728 0.4620 0.1577
vn 0.4397 -0.8890 0.1280
vn 0.0676 -0.9768 -0.2030
vn -0.9439 0.1880 -0.2713
vn -0.8771 -0.4234 0.2270
vn -0.4015 0.8941 0.1984
vn 0.0019 0.9992 -0.0387
vn 0.9939 0.0922 -0.0598
vn 0.9904 -0.0773 0.1148
vn 0.0655 -0.9974 -0.0297
vn 0.1297 -0.9877 -0.0878
vn -0.9840 -0.1150 -0.1360
vn -0.9554 -0.2928 0.0377
vn -0.1640 0.9748 0.1514
vn 0.4906 0.8593 0.1447
vn 0.8023 0.4804 -0.3543
vn 0.7071 -0.6367 0.3076
vn 0.0140 -0.9446 -0.3278
vn -0.8655 0.4177 -0.2764
vn -0.7595 -0.6095 0.2271
vn -0.7586 0.6508 -0.0299
vn -0.5936 -0.7726 0.2252
vn -0.3723 -0.8936 -0.2507
vn -0.0299 -0.9719 0.2334
vn -0.0785 -0.9953 0.0563
vn -0.9648 0.0283 0.2615
vn -0.9459 -0.2278 -0.2311
vn -0.8809 -0.4421 0.1688
vn -0.7571 -0.6347 -0.1548
vn -0.4786 0.8581 0.1861
vn -0.4423 0.8950 -0.0580
vn -0.8468 0.5053 0.1661
vn -0.8804 0.3512 -0.3187
vn 0.6958 0.6764 0.2416
vn 0.4779 0.8440 -0.2435
vn 0.2180 0.9176 0.3325
vn -0.0334 0.9610 -0.2745
vn 0.9124 -0.3544 -0.2049
vn 0.9752 0.1605 0.1525
vn 0.9792 0.1744 0.1033
vn 0.8267 0.5339 -0.1776
vn 0.4058 -0.9107 0.0771
vn 0.4770 -0.8210 -0.3136
vn 0.8395 -0.4649 0.2812
vn 0.0054 0.0072 1.0000
vn 0.0000 -0.0000 1.0000
vn 0.0037 0.0046 1.0000
vn 0.0027 0.0003 1.0000
vn -0.0008 0.0058 1.0000
vn 0.0031 -0.0035 1.0000
vn 0.0000 -0.0034 1.0000
vn -0.0073 0.0058 1.0000
vn 0.0025 -0.0007 1.0000
vn 0.0057 0.0161 0.9999
vn 0.0039 0.0044 1.0000
vn 0.0164 0.0294 0.9994
vn -0.0004 -0.0017 1.0000
vn -0.0118 0.0048 0.9999
vn 0.0030 -0.0033 1.0000
vn -0.0002 -0.0021 1.0000
vn 0.0037 -0.0225 0.9997
vn 0.0016 -0.0008 1.0000
vn -0.0050 -0.0030 1.0000
vn -0.0066 -0.0014 1.0000
vn -0.0050 -0.0036 1.0000
vn -0.0077 -0.0032 1.0000
vn -0.0007 -0.0000 1.0000
vn -0.0000 0.0005 1.0000
vn -0.0091 0.0105 0.9999
vn -0.0009 -0.0000 1.0000
vn -0.0003 -0.0015 1.0000
vn -0.0011 0.0164 0.9999
vn -0.0001 -0.0000 1.0000
vn -0.0069 0.0050 1.0000
vn 0.3237 0.9393 -0.1140
vn 0.9819 0.1299 -0.1376
vn 0.7482 0.6463 0.1498
vn 0.3176 -0.9320 -0.1747
vn 0.7930 -0.5863 0.1654
vn -0.3341 -0.9329 0.1345
vn -0.9874 -0.1330 0.0861
vn -0.8545 -0.5030 -0.1296
vn -0.5092 0.8524 0.1188
vn -0.7477 0.6580 -0.0895
vn 0.4700 0.2167 -0.8557
vn -0.0437 -0.2674 -0.9626
vn -0.8853 0.2221 -0.4086
vn -0.8436 -0.2942 0.4492
vn -0.4482 0.1818 0.8753
vn 0.8878 -0.1590 0.4319
vn 0.8932 -0.1799 0.4121
vn 0.0332 0.9994 0.0132
vn -0.0212 0.9998 0.0065
vn -0.0302 0.9952 0.0932
vn 0.8509 0.4073 -0.3318
vn 0.1938 -0.3391 -0.9206
vn -0.6686 0.3190 -0.6717
vn -0.9029 -0.2913 0.3160
vn -0.3255 0.3541 0.8767
vn 0.7108 -0.3818 0.5908
vn -0.4500 -0.8796 0.1546
vn 0.0604 0.9634 -0.2611
vn -0.1622 0.9848 -0.0622
vn -0.0001 0.9724 -0.2332
vn -0.0141 0.9674 -0.2529
vn 0.2674 0.9617 0.0598
vn 0.1880 0.9821 -0.0146
vn 0.1689 0.9854 -0.0225
vn -0.9009 0.4198 0.1101
vn 0.4408 0.8741 0.2040
vn -0.2332 0.9723 -0.0136
vn 0.0851 0.9940 0.0692
vn -0.0002 0.9819 0.1895
vn -0.2769 0.9422 -0.1887
vn -0.9998 -0.0021 -0.0216
vn -0.9998 0.0025 -0.0187
vn 0.9202 -0.3912 0.0150
vn 0.9998 -0.0018 -0.0191
vn 0.9998 -0.0012 -0.0194
vn 0.0019 -0.0053 -1.0000
vn -0.0467 -0.0253 -0.9986
vn -0.0442 0.0364 -0.9984
vn -0.0052 0.0139 -0.9999
vn -0.0020 0.0135 -0.9999
vn 0.0013 0.0111 -0.9999
vn 0.0001 -0.0054 -1.0000
vn 0.0041 -0.0144 -0.9999
vn -0.0022 0.0078 -1.0000
vn -0.0688 0.0167 -0.9975
vn 0.0057 -0.0089 -0.9999
vn 0.0141 -0.0050 -0.9999
vn -0.0130 0.0541 -0.9985
vn -0.0185 -0.0089 -0.9998
vn 0.0342 0.0166 -0.9993
vn 0.0030 0.0050 -1.0000
vn 0.0019 0.0023 -1.0000
vn -0.0057 0.0066 -1.0000
vn -0.0055 0.0085 -0.9999
vn -0.0109 -0.0031 -0.9999
vn -0.0052 0.0025 -1.0000
vn -0.0056 0.0030 -1.0000
vn 0.0414 -0.0278 -0.9988
vn 0.0118 0.0008 -0.9999
vn 0.0282 -0.0487 -0.9984
vn 0.0128 0.0028 -0.9999
vn -0.0010 -0.0059 -1.0000
vn -0.0047 -0.0038 -1.0000
vn -0.0022 -0.0069 -1.0000
vn -0.0173 -0.0149 -0.9997
vn -0.0079 -0.0026 -1.0000
vn -0.0113 -0.0147 -0.9998
vn 0.0007 0.0832 -0.9965
vn 0.0675 0.0165 -0.9976
vn -0.0484 -0.0067 -0.9988
vn 0.0194 0.0067 -0.9998
vn -0.0067 0.1091 -0.9940
vn 0.0000 0.0000 -1.0000
vn -0.0124 0.0025 -0.9999
vn 0.0526 -0.0218 -0.9984
vn -0.0521 -0.0226 -0.9984
vn 0.0777 -0.0019 -0.9970
vn -0.0343 -0.0470 -0.9983
vn -0.0230 0.0338 -0.9992
vn 0.0687 -0.0194 -0.9974
vn 0.9416 -0.3367 -0.0060
vn 0.0910 0.0008 -0.9959
vn -0.0905 0.0007 -0.9959
vn 0.0377 0.0244 -0.9990
vn -0.0492 0.0182 -0.9986
vn -0.0231 0.0398 -0.9989
vn 0.0118 0.0598 -0.9981
vn 0.0000 0.0932 -0.9956
vn 0.1413 -0.9898 -0.0202
vn -0.9929 -0.0436 -0.1106
vn -0.9460 -0.3239 -0.0106
vn 0.0421 0.9867 0.1569
vn -0.0439 0.9898 -0.1356
vn 0.0818 0.9925 -0.0910
vn -0.3359 -0.0873 0.9378
vn -0.9613 0.0844 -0.2621
vn -0.9653 0.1117 -0.2360
vn 0.3363 -0.1248 -0.9335
vn 0.7145 0.3121 -0.6261
vn 0.8521 -0.2435 0.4632
vn 0.1331 0.2602 0.9563
vn 0.4944 -0.3933 -0.7752
vn 0.4963 -0.7561 -0.4267
vn -0.9899 -0.1379 0.0324
vn -0.7212 -0.6706 -0.1736
vn 0.0575 -0.8144 0.5775
vn 0.5447 -0.2321 0.8059
vn 1.0000 0.0000 0.0000
vn 0.9991 0.0408 -0.0128
vn -0.0025 -0.0010 -1.0000
vn -0.0010 -0.0013 -1.0000
vn 0.0027 -0.0010 -1.0000
vn 0.0001 -0.0022 -1.0000
vn -0.0000 -0.0023 -1.0000
vn -1.0000 0.0000 0.0000
vn -0.9992 0.0388 -0.0122
vn -0.6719 -0.7259 0.1472
vn 0.1931 -0.9812 -0.0002
vn -0.0052 -1.0000 -0.0021
vn -0.0198 -0.9998 -0.0003
vn -0.0230 -0.9997 -0.0013
vn 0.0124 -0.9999 0.0002
vn 0.1326 -0.9907 -0.0287
vn 0.0752 -0.9968 -0.0260
vn -0.0847 -0.9782 -0.1895
vn 0.0000 -1.0000 -0.0090
vn 0.0001 -0.9998 0.0177
vn 0.0123 -0.9999 -0.0050
vn 0.0058 -0.9999 -0.0098
vn 0.3259 -0.6724 -0.6646
vn -0.8187 -0.4926 -0.2952
vn -0.7192 -0.6810 -0.1379
vn -0.1638 -0.6136 0.7724
vn -0.1399 -0.5620 0.8152
vn 0.8529 -0.5165 0.0762
vn -0.1634 0.1684 0.9721
vn -0.6057 -0.1655 0.7783
vn -0.9680 0.1629 -0.1910
vn -0.7321 -0.1754 -0.6582
vn 0.1248 0.0989 -0.9872
vn 0.5374 -0.1767 -0.8246
vn 0.9514 0.0242 0.3070
vn 0.7631 -0.2073 0.6121
vn -0.1181 -0.9911 0.0609
vn 0.1191 -0.9919 -0.0441
vn -0.1746 -0.9845 0.0178
vn 0.1772 -0.9839 -0.0207
vn -0.1167 -0.9921 0.0471
vn -0.9648 -0.2583 0.0494
vn -0.8452 -0.5301 -0.0680
vn -0.7670 0.6416 -0.0053
vn -0.7506 0.6605 -0.0165
vn 0.1111 0.9938 -0.0042
vn 0.0984 0.9951 -0.0094
vn 0.9414 0.3350 -0.0392
vn 0.8636 0.5030 0.0334
vn 0.0889 -0.9958 -0.0217
vn 0.8162 -0.5775 0.0196
vn 0.8218 -0.5695 0.0157
vn 0.0208 -0.0519 -0.9984
vn 0.0845 0.0215 -0.9962
vn 0.0671 0.0239 -0.9975
vn 0.0717 -0.0497 -0.9962
vn 0.0082 0.0825 -0.9966
vn -0.0719 0.0601 -0.9956
vn 0.0032 0.0758 -0.9971
vn -0.0594 -0.0372 -0.9975
vn -0.2062 -0.2510 -0.9458
vn -0.0674 0.0498 -0.9965
vn 0.0071 -0.0796 -0.9968
vn -0.0031 0.0133 -0.9999
vn -0.0022 -0.0051 -1.0000
vn -0.0047 -0.0006 -1.0000
vn -0.0001 -0.0036 -1.0000
vn -0.5070 0.8617 -0.0201
vn -0.9984 0.0546 -0.0165
vn -0.9225 0.3858 0.0126
vn -0.7093 -0.7047 -0.0136
vn -0.6701 -0.7422 -0.0077
vn 0.4562 -0.8899 0.0027
vn 0.3834 -0.9236 -0.0074
vn 0.9634 0.2681 0.0079
vn 0.9995 0.0253 -0.0176
vn 0.0309 0.9995 0.0064
vn 0.4000 0.9163 -0.0208
usemtl None
s off
f 81//1 1//1 2//1
f 2//2 1//2 3//2
f 6//3 9//3 8//3
f 5//4 10//4 9//4
f 5//5 9//5 6//5
f 4//6 10//6 5//6
f 4//7 11//7 10//7
f 7//8 8//8 11//8
f 7//9 11//9 4//9
f 6//10 8//10 7//10
f 14//11 17//11 16//11
f 14//12 18//12 17//12
f 13//13 18//13 14//13
f 12//14 19//14 13//14
f 13//15 19//15 18//15
f 15//16 16//16 19//16
f 15//17 19//17 12//17
f 14//18 16//18 15//18
f 20//19 24//19 21//19
f 20//20 25//20 24//20
f 23//21 25//21 20//21
f 23//22 26//22 25//22
f 22//23 24//23 26//23
f 22//24 26//24 23//24
f 21//25 24//25 22//25
f 40//26 27//26 37//26
f 37//27 27//27 2//27
f 37//28 2//28 3//28
f 37//29 3//29 38//29
f 42//30 29//30 39//30
f 39//31 29//31 28//31
f 39//32 28//32 40//32
f 40//33 28//33 27//33
f 45//34 31//34 30//34
f 45//35 30//35 41//35
f 41//36 30//36 42//36
f 42//37 30//37 29//37
f 43//38 33//38 44//38
f 44//39 33//39 32//39
f 44//40 32//40 45//40
f 45//41 32//41 31//41
f 46//42 36//42 35//42
f 46//43 35//43 43//43
f 43//44 35//44 34//44
f 43//45 34//45 33//45
f 38//46 3//46 47//46
f 47//47 3//47 36//47
f 47//48 36//48 46//48
f 44//49 19//49 43//49
f 26//50 18//50 45//50
f 26//50 17//50 18//50
f 45//51 18//51 44//51
f 43//52 19//52 16//52
f 44//53 18//53 19//53
f 43//54 16//54 26//54
f 26//50 16//50 17//50
f 26//55 38//55 47//55
f 47//56 46//56 50//56
f 26//57 37//57 38//57
f 47//58 48//58 26//58
f 26//59 48//59 49//59
f 47//60 51//60 48//60
f 46//61 52//61 50//61
f 47//62 50//62 51//62
f 43//63 26//63 52//63
f 52//64 46//64 43//64
f 49//65 52//65 26//65
f 24//66 37//66 26//66
f 40//67 24//67 25//67
f 40//68 25//68 39//68
f 37//69 24//69 40//69
f 39//70 25//70 42//70
f 8//71 42//71 26//71
f 26//72 42//72 25//72
f 42//73 10//73 41//73
f 42//74 9//74 10//74
f 42//75 8//75 9//75
f 10//76 11//76 41//76
f 45//77 11//77 26//77
f 41//78 11//78 45//78
f 26//50 11//50 8//50
f 56//79 48//79 51//79
f 53//80 49//80 48//80
f 53//81 48//81 56//81
f 54//82 52//82 49//82
f 54//83 49//83 53//83
f 55//84 52//84 54//84
f 57//85 50//85 55//85
f 55//86 50//86 52//86
f 56//87 51//87 57//87
f 57//88 51//88 50//88
f 63//89 69//89 64//89
f 65//90 64//90 69//90
f 64//91 65//91 66//91
f 66//92 65//92 67//92
f 66//93 67//93 68//93
f 67//94 63//94 68//94
f 69//95 63//95 67//95
f 70//96 69//96 67//96
f 71//97 67//97 65//97
f 70//98 67//98 71//98
f 72//99 77//99 73//99
f 74//100 73//100 77//100
f 73//101 74//101 75//101
f 75//102 74//102 76//102
f 75//103 76//103 72//103
f 77//104 72//104 76//104
f 76//105 74//105 78//105
f 74//106 77//106 78//106
f 71//107 65//107 61//107
f 61//108 65//108 60//108
f 60//109 65//109 69//109
f 60//110 69//110 70//110
f 79//111 60//111 77//111
f 77//112 60//112 70//112
f 77//113 70//113 78//113
f 78//114 71//114 62//114
f 62//115 71//115 61//115
f 79//116 77//116 76//116
f 79//117 76//117 62//117
f 62//118 76//118 78//118
f 80//119 59//119 79//119
f 79//120 59//120 60//120
f 81//121 59//121 80//121
f 62//122 61//122 82//122
f 82//123 61//123 83//123
f 29//124 23//124 20//124
f 22//125 23//125 59//125
f 27//126 21//126 22//126
f 27//127 20//127 21//127
f 60//128 31//128 32//128
f 60//129 32//129 61//129
f 31//130 7//130 4//130
f 30//131 4//131 5//131
f 29//132 5//132 6//132
f 60//133 7//133 31//133
f 31//134 4//134 30//134
f 30//135 5//135 29//135
f 60//136 6//136 7//136
f 27//137 28//137 29//137
f 20//138 27//138 29//138
f 27//139 22//139 2//139
f 3//140 53//140 56//140
f 57//141 36//141 56//141
f 3//142 56//142 36//142
f 57//143 55//143 36//143
f 36//144 55//144 35//144
f 54//145 35//145 55//145
f 54//146 53//146 83//146
f 34//147 35//147 61//147
f 35//148 54//148 83//148
f 35//149 83//149 61//149
f 32//150 12//150 13//150
f 33//151 15//151 12//151
f 33//152 12//152 32//152
f 32//153 13//153 14//153
f 34//154 15//154 33//154
f 14//155 15//155 34//155
f 61//156 14//156 34//156
f 32//157 14//157 61//157
f 3//158 84//158 83//158
f 87//159 1//159 81//159
f 81//160 85//160 87//160
f 87//161 85//161 86//161
f 87//161 86//161 88//161
f 87//161 88//161 89//161
f 60//162 59//162 29//162
f 83//163 53//163 3//163
f 2//164 22//164 59//164
f 2//165 59//165 58//165
f 23//166 29//166 59//166
f 60//167 29//167 6//167
f 58//168 59//168 81//168
f 81//169 80//169 90//169
f 62//170 82//170 91//170
f 90//171 80//171 79//171
f 91//172 93//172 62//172
f 79//173 92//173 90//173
f 92//174 79//174 94//174
f 93//175 94//175 62//175
f 62//176 94//176 79//176
f 84//177 82//177 83//177
f 82//178 84//178 1//178
f 82//179 1//179 91//179
f 66//180 68//180 63//180
f 64//181 66//181 63//181
f 73//182 75//182 72//182
f 96//183 101//183 95//183
f 96//184 95//184 97//184
f 96//185 97//185 98//185
f 99//186 98//186 97//186
f 99//187 97//187 100//187
f 99//188 100//188 101//188
f 100//189 95//189 101//189
f 97//190 103//190 102//190
f 97//191 102//191 100//191
f 95//192 104//192 103//192
f 95//193 103//193 97//193
f 100//194 104//194 95//194
f 100//195 102//195 104//195
f 107//196 106//196 108//196
f 108//197 106//197 109//197
f 105//198 110//198 111//198
f 105//199 111//199 113//199
f 106//200 112//200 109//200
f 113//201 114//201 106//201
f 106//2 114//2 112//2
f 105//202 113//202 106//202
f 105//203 115//203 116//203
f 105//204 116//204 110//204
f 105//205 120//205 117//205
f 105//206 117//206 115//206
f 119//207 118//207 107//207
f 107//208 103//208 106//208
f 103//209 104//209 106//209
f 105//210 104//210 102//210
f 105//211 102//211 120//211
f 107//212 118//212 103//212
f 115//213 117//213 119//213
f 115//214 119//214 107//214
f 106//215 104//215 105//215
f 120//216 102//216 103//216
f 103//217 118//217 120//217
f 121//218 119//218 117//218
f 121//219 118//219 119//219
f 122//220 118//220 121//220
f 123//221 120//221 118//221
f 123//222 118//222 122//222
f 123//223 117//223 120//223
f 122//224 124//224 123//224
f 124//225 122//225 125//225
f 125//226 122//226 121//226
f 125//227 121//227 126//227
f 121//228 117//228 126//228
f 127//229 126//229 117//229
f 127//230 117//230 123//230
f 127//231 123//231 124//231
f 98//232 99//232 101//232
f 96//233 98//233 101//233
f 126//234 127//234 124//234
f 125//235 126//235 124//235
f 132//50 130//50 128//50
f 132//50 128//50 129//50
f 135//50 130//50 131//50
f 131//50 130//50 132//50
f 137//50 141//50 133//50
f 137//50 133//50 134//50
f 134//50 133//50 135//50
f 135//50 133//50 130//50
f 140//50 141//50 136//50
f 136//50 141//50 137//50
f 144//50 143//50 138//50
f 138//50 143//50 139//50
f 138//50 139//50 140//50
f 140//50 139//50 141//50
f 129//50 128//50 142//50
f 142//50 128//50 143//50
f 142//50 143//50 144//50
f 141//236 145//236 133//236
f 139//237 147//237 141//237
f 141//238 147//238 145//238
f 143//239 146//239 147//239
f 143//240 147//240 139//240
f 128//241 148//241 143//241
f 143//242 148//242 146//242
f 130//243 150//243 148//243
f 130//244 148//244 128//244
f 133//245 145//245 149//245
f 133//246 149//246 130//246
f 130//247 149//247 150//247
f 152//248 149//248 151//248
f 153//249 148//249 152//249
f 152//250 148//250 150//250
f 152//251 150//251 149//251
f 153//252 146//252 148//252
f 155//253 147//253 146//253
f 155//254 146//254 153//254
f 151//255 145//255 147//255
f 151//256 147//256 154//256
f 154//257 147//257 155//257
f 151//258 149//258 145//258
f 156//259 158//259 157//259
f 156//260 159//260 158//260
f 156//261 160//261 159//261
f 156//262 161//262 160//262
f 158//263 155//263 157//263
f 159//264 154//264 158//264
f 158//265 154//265 155//265
f 160//266 151//266 154//266
f 160//267 154//267 159//267
f 161//268 152//268 151//268
f 161//269 151//269 160//269
f 156//270 153//270 152//270
f 156//271 152//271 161//271
f 157//272 155//272 153//272
f 157//273 153//273 156//273
